<!DOCTYPE svg PUBLIC "-//W3C//DTD SVG 1.1//EN" "http://www.w3.org/Graphics/SVG/1.1/DTD/svg11.dtd">
<!-- Uploaded to: SVG Repo, www.svgrepo.com, Transformed by: SVG Repo Mixer Tools -->
<svg fill="#000000" width="800px" height="800px" viewBox="0 0 32.00 32.00" data-name="Layer 13" id="Layer_13" xmlns="http://www.w3.org/2000/svg" transform="matrix(1, 0, 0, 1, 0, 0)rotate(0)">
<g id="SVGRepo_bgCarrier" stroke-width="0"/>
<g id="SVGRepo_tracerCarrier" stroke-linecap="round" stroke-linejoin="round" stroke="#CCCCCC" stroke-width="0.96"/>
<g id="SVGRepo_iconCarrier">
<title/>
<path d="M28.55,6.57H26.42V4.93a0.5,0.5,0,1,0-1,0V6.57H19.81V5.06a0.5,0.5,0,0,0-1,0V6.57H13.19V5.06a0.5,0.5,0,0,0-1,0V6.57H6.58V5.06a0.5,0.5,0,1,0-1,0V6.57H3.45A2,2,0,0,0,1.5,8.52v17.1a2,2,0,0,0,1.95,2h25.1a2,2,0,0,0,1.95-2V8.52A2,2,0,0,0,28.55,6.57Zm-25.1,1H5.58V9.08a0.5,0.5,0,0,0,1,0V7.57h5.61V9.08a0.5,0.5,0,0,0,1,0V7.57h5.61V9.08a0.5,0.5,0,0,0,1,0V7.57h5.61V8.94a0.5,0.5,0,1,0,1,0V7.57h2.13a1,1,0,0,1,.95.95v2.94H2.5V8.52A1,1,0,0,1,3.45,7.57Zm25.1,19H3.45a1,1,0,0,1-.95-1V12.46h27V25.62A1,1,0,0,1,28.55,26.57Z"/>
<rect height="2.13" width="2.13" x="9.99" y="14.39"/>
<rect height="2.13" width="2.13" x="14.98" y="14.39"/>
<rect height="2.13" width="2.13" x="19.98" y="14.37"/>
<rect height="2.13" width="2.13" x="5" y="18.45"/>
<rect height="2.13" width="2.13" x="9.99" y="18.45"/>
<rect height="2.13" width="2.13" x="14.98" y="18.45"/>
<rect height="2.13" width="2.13" x="5" y="22.56"/>
<rect height="2.13" width="2.13" x="9.99" y="22.56"/>
<rect height="2.13" width="2.13" x="14.98" y="22.55"/>
<rect height="2.13" width="2.13" x="19.98" y="22.55"/>
<rect height="2.13" width="2.13" x="19.98" y="18.44"/>
<rect height="2.13" width="2.13" x="24.87" y="14.36"/>
<rect height="2.13" width="2.13" x="24.87" y="18.42"/>
</g>
</svg>